<svg width="36" height="24" viewBox="0 0 36 24" fill="none" xmlns="http://www.w3.org/2000/svg">
<rect width="36" height="24" rx="2" fill="#B4D6C4"/>
<g opacity="0.3">
<rect width="36" height="24" rx="2" fill="#E9F3E4"/>
</g>
<g clip-path="url(#clip0_6393_15741)">
<rect width="5.84717" height="8.03986" rx="2.92359" transform="matrix(0.99996 -0.00890106 -1.63293e-08 1 27.8242 2.05176)" fill="#FFF9E5"/>
<path d="M32.3948 3.79113C32.3725 3.79133 32.3502 3.78574 32.3307 3.77434C31.7955 3.49269 31.3328 3.37529 30.7781 3.38023C30.2261 3.38514 29.7021 3.52579 29.2254 3.80198C29.1585 3.84019 29.0749 3.8149 29.0359 3.74581C28.9996 3.67669 29.0247 3.58678 29.0916 3.54858C29.6101 3.25176 30.1787 3.09625 30.7781 3.09092C31.3718 3.08563 31.8903 3.21699 32.4589 3.51571C32.5286 3.5527 32.5537 3.63927 32.5175 3.70903C32.4924 3.76133 32.445 3.79068 32.3948 3.79113V3.79113ZM28.4059 5.34553C28.378 5.34578 28.3501 5.33735 28.325 5.32021C28.2609 5.27449 28.247 5.18493 28.2916 5.11799C28.5676 4.7105 28.9188 4.38912 29.3369 4.16263C30.2122 3.68615 31.3328 3.67329 32.2108 4.13416C32.629 4.35321 32.9802 4.66543 33.2561 5.06512C33.3007 5.12837 33.2868 5.22108 33.2227 5.26794C33.1586 5.3148 33.0722 5.3011 33.0276 5.23496C32.7767 4.87265 32.4589 4.58906 32.0826 4.39279C31.2826 3.97462 30.2596 3.98372 29.4623 4.419C29.0832 4.6249 28.7655 4.91704 28.5146 5.28381C28.4923 5.32451 28.4505 5.34513 28.4059 5.34553V5.34553ZM30.1481 8.82203C30.1118 8.82236 30.0756 8.80821 30.0505 8.77951C29.808 8.52996 29.677 8.36911 29.4902 8.02071C29.2979 7.66656 29.1975 7.23349 29.1975 6.76769C29.1975 5.90843 29.9056 5.20199 30.7753 5.19425C31.645 5.18651 32.353 5.88034 32.353 6.7396C32.353 6.82061 32.2917 6.88481 32.2136 6.8855C32.1356 6.8862 32.0742 6.82309 32.0742 6.74208C32.0742 6.04195 31.4917 5.47719 30.7753 5.48356C30.0589 5.48994 29.4763 6.06507 29.4763 6.76521C29.4763 7.18182 29.5655 7.56581 29.7355 7.87676C29.9139 8.20788 30.0366 8.34855 30.2512 8.57231C30.3042 8.6297 30.3042 8.71938 30.2512 8.77772C30.2205 8.80692 30.1843 8.82171 30.1481 8.82203ZM32.1467 8.26901C31.815 8.27197 31.5223 8.18778 31.2826 8.01922C30.8673 7.73071 30.6192 7.25844 30.6192 6.75504C30.6192 6.67403 30.6805 6.60983 30.7585 6.60914C30.8366 6.60845 30.8979 6.67155 30.8979 6.75256C30.8979 7.16049 31.0986 7.54349 31.4387 7.7777C31.6366 7.91481 31.868 7.97929 32.1467 7.97681C32.2136 7.97621 32.3251 7.96654 32.4366 7.9453C32.5119 7.93016 32.5844 7.98159 32.5983 8.06247C32.6122 8.14047 32.5621 8.21613 32.484 8.23129C32.3251 8.26453 32.1857 8.26867 32.1467 8.26901V8.26901ZM31.5864 8.86999C31.5753 8.87009 31.5613 8.86732 31.5502 8.86452C31.107 8.74117 30.8171 8.57306 30.5132 8.2662C30.123 7.86752 29.9083 7.3342 29.9083 6.76136C29.9083 6.29268 30.293 5.90736 30.7669 5.90314C31.2408 5.89892 31.6255 6.27739 31.6255 6.74608C31.6255 7.05565 31.8847 7.30504 32.2053 7.30219C32.5258 7.29933 32.7851 7.04532 32.7851 6.73576C32.7851 5.64505 31.8791 4.76781 30.7641 4.77774C29.9725 4.78478 29.2477 5.24835 28.9216 5.96007C28.8129 6.19538 28.7571 6.47073 28.7571 6.77161C28.7571 6.99728 28.7766 7.35296 28.9439 7.81437C28.9717 7.88934 28.9355 7.97357 28.863 8.00025C28.7906 8.02983 28.7097 7.99004 28.6846 7.91794C28.548 7.54015 28.4811 7.16464 28.4811 6.77407C28.4811 6.42689 28.5453 6.11097 28.6707 5.83501C29.0414 5.02452 29.8637 4.49355 30.7641 4.48553C32.0324 4.47424 33.0638 5.48055 33.0638 6.73038C33.0638 7.19907 32.6791 7.58439 32.2053 7.58861C31.7314 7.59282 31.3467 7.21436 31.3467 6.74567C31.3467 6.4361 31.0875 6.18671 30.7669 6.18956C30.4463 6.19241 30.1871 6.44642 30.1871 6.75599C30.1871 7.25072 30.3711 7.71198 30.7084 8.05615C30.9732 8.32575 31.2268 8.47394 31.6199 8.58327C31.6951 8.60285 31.737 8.68349 31.7174 8.75888C31.7035 8.82555 31.645 8.86947 31.5864 8.86999V8.86999Z" fill="#454F5B"/>
</g>
<g clip-path="url(#clip1_6393_15741)">
<rect width="5.84717" height="8.03986" rx="2.92358" transform="matrix(0.99996 -0.00890106 -1.63293e-08 1 21.2461 2.11035)" fill="#FFF9E5"/>
<path d="M25.8167 3.84972C25.7944 3.84992 25.7721 3.84433 25.7526 3.83294C25.2174 3.55128 24.7546 3.43389 24.1999 3.43882C23.648 3.44374 23.1239 3.58438 22.6473 3.86058C22.5804 3.89878 22.4968 3.87349 22.4577 3.8044C22.4215 3.73529 22.4466 3.64538 22.5135 3.60717C23.032 3.31035 23.6006 3.15485 24.1999 3.14951C24.7937 3.14423 25.3121 3.27559 25.8808 3.5743C25.9505 3.6113 25.9756 3.69787 25.9393 3.76762C25.9142 3.81992 25.8669 3.84928 25.8167 3.84972V3.84972ZM21.8278 5.40412C21.7999 5.40437 21.772 5.39594 21.7469 5.37881C21.6828 5.33309 21.6689 5.24352 21.7135 5.17658C21.9894 4.76909 22.3407 4.44772 22.7588 4.22123C23.6341 3.74475 24.7546 3.73188 25.6327 4.19275C26.0508 4.4118 26.4021 4.72402 26.678 5.12371C26.7226 5.18697 26.7087 5.27967 26.6446 5.32653C26.5805 5.37339 26.494 5.3597 26.4494 5.29355C26.1986 4.93125 25.8808 4.64766 25.5045 4.45138C24.7045 4.03321 23.6814 4.04232 22.8842 4.4776C22.5051 4.68349 22.1873 4.97563 21.9365 5.3424C21.9142 5.3831 21.8724 5.40373 21.8278 5.40412V5.40412ZM23.5699 8.88063C23.5337 8.88095 23.4975 8.86681 23.4724 8.8381C23.2299 8.58856 23.0989 8.42771 22.9121 8.0793C22.7198 7.72516 22.6194 7.29208 22.6194 6.82629C22.6194 5.96703 23.3274 5.26058 24.1971 5.25284C25.0668 5.2451 25.7749 5.93894 25.7749 6.7982C25.7749 6.87921 25.7135 6.9434 25.6355 6.94409C25.5574 6.94479 25.4961 6.88169 25.4961 6.80068C25.4961 6.10054 24.9135 5.53578 24.1971 5.54216C23.4807 5.54853 22.8982 6.12367 22.8982 6.8238C22.8982 7.24042 22.9874 7.62441 23.1574 7.93535C23.3358 8.26648 23.4584 8.40715 23.6731 8.6309C23.726 8.68829 23.726 8.77798 23.6731 8.83631C23.6424 8.86552 23.6062 8.88031 23.5699 8.88063ZM25.5686 8.32761C25.2369 8.33056 24.9442 8.24637 24.7045 8.07781C24.2891 7.7893 24.041 7.31704 24.041 6.81363C24.041 6.73262 24.1024 6.66843 24.1804 6.66773C24.2585 6.66704 24.3198 6.73014 24.3198 6.81115C24.3198 7.21908 24.5205 7.60208 24.8606 7.83629C25.0585 7.9734 25.2898 8.03788 25.5686 8.0354C25.6355 8.03481 25.747 8.02513 25.8585 8.00389C25.9338 7.98875 26.0062 8.04019 26.0202 8.12107C26.0341 8.19906 25.9839 8.27473 25.9059 8.28989C25.747 8.32313 25.6076 8.32726 25.5686 8.32761V8.32761ZM25.0083 8.92858C24.9971 8.92868 24.9832 8.92591 24.9721 8.92312C24.5288 8.79976 24.2389 8.63165 23.9351 8.32479C23.5449 7.92612 23.3302 7.3928 23.3302 6.81996C23.3302 6.35127 23.7149 5.96595 24.1888 5.96174C24.6626 5.95752 25.0473 6.33599 25.0473 6.80467C25.0473 7.11424 25.3066 7.36363 25.6271 7.36078C25.9477 7.35793 26.2069 7.10392 26.2069 6.79435C26.2069 5.70364 25.301 4.82641 24.186 4.83633C23.3943 4.84338 22.6696 5.30694 22.3434 6.01866C22.2347 6.25398 22.179 6.52932 22.179 6.83021C22.179 7.05587 22.1985 7.41155 22.3657 7.87296C22.3936 7.94794 22.3574 8.03216 22.2849 8.05884C22.2124 8.08842 22.1316 8.04864 22.1065 7.97653C21.9699 7.59875 21.903 7.22324 21.903 6.83266C21.903 6.48549 21.9671 6.16956 22.0926 5.8936C22.4633 5.08312 23.2856 4.55214 24.186 4.54412C25.4543 4.53284 26.4857 5.53914 26.4857 6.78898C26.4857 7.25766 26.101 7.64298 25.6271 7.6472C25.1532 7.65142 24.7686 7.27295 24.7686 6.80426C24.7686 6.4947 24.5093 6.2453 24.1888 6.24816C23.8682 6.25101 23.609 6.50502 23.609 6.81458C23.609 7.30931 23.7929 7.77057 24.1302 8.11475C24.395 8.38434 24.6487 8.53253 25.0417 8.64186C25.117 8.66144 25.1588 8.74208 25.1393 8.81748C25.1254 8.88414 25.0668 8.92806 25.0083 8.92858V8.92858Z" fill="#454F5B"/>
</g>
<path d="M2 20.5127C2 20.0656 2.36246 19.6999 2.80958 19.6959L32.9063 19.428C33.3534 19.424 33.7159 19.7833 33.7159 20.2304C33.7159 20.6776 33.3534 21.0433 32.9063 21.0472L2.80958 21.3151C2.36246 21.3191 2 20.9599 2 20.5127Z" fill="#82B699"/>
<path d="M2 18.1963C2 17.7492 2.36246 17.3835 2.80958 17.3795L32.9063 17.1116C33.3534 17.1076 33.7159 17.4669 33.7159 17.914C33.7159 18.3611 33.3534 18.7268 32.9063 18.7308L2.80958 18.9987C2.36246 19.0027 2 18.6435 2 18.1963Z" fill="#82B699"/>
<path d="M2 15.8819C2 15.4347 2.36246 15.069 2.80958 15.0651L32.9063 14.7972C33.3534 14.7932 33.7159 15.1524 33.7159 15.5996C33.7159 16.0467 33.3534 16.4124 32.9063 16.4164L2.80958 16.6843C2.36246 16.6883 2 16.329 2 15.8819Z" fill="#82B699"/>
<path d="M8.49082 11.2318L2.96425 11.281C2.43215 11.2857 2 10.857 2 10.3244L2 6.40754C2 5.87399 2.43215 5.43854 2.96425 5.4338L9.13619 5.37886C9.66924 5.37412 10.1004 5.80188 10.1004 6.33544L10.1004 9.99313L8.49082 11.2318Z" fill="url(#paint0_linear_6393_15741)"/>
<path opacity="0.61" d="M8.94218 5.37783L3.09852 5.42985C2.60799 5.43422 2.24103 5.68092 2.07277 6.02665L2.01953 6.26105C2.08418 5.83826 2.54334 5.50611 3.09852 5.50117L5.79552 5.47716L5.79552 5.75958C5.78506 5.76158 5.77461 5.76453 5.7632 5.76653C5.72327 5.77354 5.68335 5.7815 5.64532 5.79135C5.62536 5.79628 5.60634 5.80216 5.58733 5.80803C5.55216 5.81881 5.51698 5.83053 5.48276 5.8432C5.46755 5.84904 5.45329 5.85392 5.43808 5.85976C5.39245 5.87823 5.34872 5.89954 5.30594 5.9218C5.28882 5.93051 5.27171 5.94112 5.25555 5.95077C5.22798 5.96623 5.20136 5.98359 5.1757 5.99998C5.16239 6.00866 5.14718 6.0164 5.13387 6.02603C5.10535 6.04625 5.07683 6.06837 5.05116 6.09047L5.0388 6.10009C5.01409 6.12219 4.98937 6.14428 4.96085 6.17211L4.95324 6.17883C4.92948 6.20282 4.90761 6.22773 4.88575 6.25265L4.87624 6.2632C4.82871 6.32068 4.78688 6.38191 4.75171 6.44403C4.74695 6.45263 4.7422 6.46123 4.7384 6.46982L4.73079 6.48511C4.72128 6.50326 4.71178 6.52141 4.70322 6.5405C4.69752 6.55292 4.69277 6.56532 4.68801 6.57773L4.67851 6.59968L2.01953 6.62335L2.01953 6.69467L4.65189 6.67124C4.64904 6.68172 4.64808 6.69219 4.64523 6.70268C4.63478 6.73796 4.62717 6.77416 4.62052 6.8113C4.61766 6.82654 4.61576 6.84177 4.61291 6.85701C4.60626 6.90462 4.60245 6.9522 4.60245 7.0007L4.60245 7.00165C4.60245 7.25364 4.68896 7.49631 4.85152 7.70311C4.87149 7.72766 4.8867 7.7551 4.90286 7.78158L2.01953 7.80725L2.01953 7.87857L4.94659 7.85251C4.96655 7.89132 4.98462 7.93015 4.99888 7.97091C5.00268 7.98229 5.00553 7.99368 5.00933 8.00505C5.02074 8.04014 5.0293 8.07619 5.0369 8.11321C5.0388 8.12651 5.04165 8.13884 5.04356 8.15214C5.05021 8.19963 5.05496 8.24808 5.05496 8.29753L5.05496 8.47821C5.05496 8.52955 5.05021 8.57905 5.04261 8.62856C5.03975 8.64665 5.035 8.66476 5.0312 8.68286C5.02454 8.71335 5.01789 8.74384 5.00838 8.77341C5.00173 8.79343 4.99412 8.81347 4.98652 8.83351C4.97606 8.86023 4.96465 8.886 4.95229 8.91179C4.94279 8.93089 4.93233 8.95 4.92187 8.96911C4.91617 8.97963 4.90856 8.9892 4.90191 8.99972L2.01953 9.02538L2.01953 9.0967L4.85533 9.07146C4.85438 9.07337 4.85247 9.07433 4.85152 9.07624C4.68801 9.28595 4.60245 9.5292 4.60245 9.78214C4.60245 9.78214 4.60245 9.78214 4.60245 9.78309C4.60245 9.78309 4.60245 9.78309 4.60245 9.78405C4.60245 9.82969 4.60626 9.8753 4.61196 9.91994C4.61291 9.92659 4.61386 9.93229 4.61481 9.93894C4.62052 9.98168 4.63002 10.0234 4.64048 10.0642C4.64143 10.0661 4.64143 10.069 4.64143 10.0709L2.01953 10.0942L2.01953 10.1655L4.66234 10.142C4.66615 10.1534 4.6728 10.1647 4.67755 10.1761C4.68706 10.2017 4.69847 10.2273 4.70988 10.2519C4.71938 10.2718 4.72794 10.2917 4.7384 10.3106C4.75741 10.3456 4.77737 10.3787 4.79924 10.4118C4.81255 10.4307 4.82681 10.4496 4.84107 10.4685C4.85533 10.4874 4.87054 10.5063 4.8867 10.5251C4.90191 10.5421 4.91617 10.5591 4.93233 10.5761C4.9618 10.6062 4.99222 10.6364 5.02454 10.6646C5.035 10.6731 5.04641 10.6816 5.05687 10.69C5.08729 10.7145 5.11771 10.737 5.15003 10.7596C5.16144 10.7671 5.17284 10.7746 5.18425 10.7821C5.27361 10.8383 5.37058 10.8869 5.47325 10.9241C5.478 10.9259 5.48276 10.9268 5.48751 10.9287C5.58448 10.963 5.68715 10.9887 5.79457 11.0039L5.79457 11.2274L5.86587 11.2268L5.86587 10.9386L5.86017 10.9377L5.80978 10.9306C5.80123 10.9297 5.79267 10.9279 5.78506 10.927L5.77366 10.9252C5.74704 10.9207 5.72042 10.9171 5.69475 10.9116L5.6938 10.9116C5.68525 10.9098 5.67574 10.907 5.66718 10.9052C5.55596 10.8796 5.45044 10.8415 5.35252 10.793C5.34586 10.7902 5.33921 10.7864 5.33351 10.7827C5.29453 10.763 5.2584 10.7415 5.22228 10.718C5.21182 10.7115 5.20136 10.7049 5.19186 10.6983C5.15383 10.673 5.11771 10.6457 5.08348 10.6166C5.07017 10.6053 5.05687 10.593 5.04451 10.5808C5.02454 10.5619 5.00458 10.5431 4.98557 10.5233C4.97036 10.5073 4.95515 10.4922 4.94184 10.4752C4.92282 10.4535 4.90476 10.4299 4.88765 10.4063C4.86959 10.3817 4.85247 10.3562 4.83536 10.3297C4.823 10.3098 4.81065 10.289 4.80019 10.2682C4.78973 10.2493 4.78023 10.2303 4.77167 10.2114C4.75646 10.1783 4.74315 10.1451 4.73079 10.111L4.72509 10.093C4.70988 10.0436 4.69847 9.99525 4.68991 9.94587C4.68896 9.93923 4.68801 9.93353 4.68706 9.92688C4.67946 9.87845 4.67565 9.82904 4.67565 9.78054C4.67565 9.54471 4.75646 9.31577 4.90951 9.11947C4.91427 9.11372 4.91712 9.10704 4.92092 9.1013C4.92853 9.09077 4.93708 9.07929 4.94469 9.06876L4.94659 9.06874L4.95705 9.05248C4.95895 9.04961 4.96085 9.04579 4.96275 9.04197L4.99317 8.99606L4.98937 8.99609C4.99888 8.97984 5.00743 8.96265 5.01599 8.94545C5.0293 8.91871 5.0407 8.89103 5.05211 8.86335C5.06067 8.84046 5.07017 8.8185 5.07778 8.79561C5.08729 8.76414 5.09489 8.73175 5.10155 8.69936C5.1063 8.67934 5.112 8.65932 5.11485 8.63838C5.12341 8.5841 5.12816 8.52985 5.12816 8.4747L5.12816 8.29403C5.12816 8.24173 5.12341 8.19042 5.11581 8.14009C5.11295 8.12204 5.10915 8.10401 5.10535 8.08598C5.09869 8.05275 5.09014 8.0205 5.08063 7.98825C5.07493 7.97024 5.06922 7.95127 5.06257 7.93326C5.05211 7.90387 5.0388 7.87642 5.02549 7.84801L5.03025 7.84796L5.00268 7.79781L5.00268 7.79686L5.00173 7.79497C5.00078 7.79402 4.99983 7.79213 4.99888 7.79119L4.99127 7.77699L4.98937 7.77701C4.96465 7.73444 4.93803 7.69188 4.90856 7.65411C4.75551 7.46053 4.6747 7.23303 4.6747 6.9972L4.6747 6.99625C4.6747 6.94395 4.68041 6.8916 4.68801 6.84018C4.68991 6.8278 4.69181 6.81542 4.69372 6.80304C4.70227 6.75637 4.71558 6.71061 4.73079 6.66578C4.8154 6.41969 4.99127 6.20322 5.22513 6.04994C5.2489 6.03451 5.27266 6.01909 5.29738 6.00555C5.31734 5.99396 5.33636 5.98333 5.35727 5.97269C5.3934 5.9543 5.43142 5.93684 5.46945 5.92129C5.48751 5.91352 5.50652 5.90765 5.52554 5.90082C5.55976 5.88816 5.59493 5.87738 5.63011 5.86756C5.64912 5.86264 5.66813 5.85676 5.6881 5.85278C5.72708 5.84387 5.767 5.83591 5.80788 5.82984C5.81739 5.82786 5.82689 5.82587 5.83735 5.82483L5.86682 5.82266L5.86682 5.47653L6.17388 5.47379L6.17388 5.81708L6.20525 5.8206C6.20811 5.82057 6.21001 5.82151 6.21286 5.82148C6.26419 5.82673 6.31458 5.83579 6.36401 5.84581C6.37827 5.84854 6.39253 5.85222 6.40679 5.85589C6.45242 5.8669 6.49805 5.8798 6.54273 5.89557C6.54844 5.89742 6.55414 5.89927 6.55985 5.90112C6.60833 5.91876 6.65586 5.93926 6.70149 5.96167C6.71385 5.96727 6.72621 5.97382 6.73857 5.98036C6.7785 6.00093 6.81652 6.02341 6.8536 6.0478C7.05038 6.17728 7.20439 6.35183 7.2947 6.55357C7.2966 6.55736 7.29755 6.56115 7.29945 6.56494C7.30991 6.58957 7.31942 6.61421 7.32797 6.63981C7.34413 6.68721 7.35744 6.73464 7.366 6.78306C7.3679 6.79445 7.3698 6.80585 7.3717 6.81724C7.38026 6.86947 7.38501 6.92173 7.38501 6.97498L7.38501 6.97593C7.38501 7.21081 7.30421 7.4388 7.15305 7.63508C7.12263 7.67434 7.09601 7.71737 7.0713 7.76133L7.0694 7.76135L7.06179 7.77568C7.06084 7.77759 7.05989 7.77855 7.05894 7.78046L7.03042 7.83396L7.03517 7.83392C7.02186 7.86257 7.00855 7.89121 6.9981 7.92079C6.99334 7.93509 6.98859 7.9494 6.98479 7.96465C6.97338 8.00183 6.96387 8.039 6.95722 8.0771C6.95437 8.09139 6.95152 8.10568 6.94961 8.11996C6.94201 8.17138 6.93726 8.22372 6.93726 8.27697L6.93726 8.4662C6.93726 8.6716 6.99525 8.86793 7.10552 9.03526L7.11598 9.05133L10.0307 9.02539L10.0307 10.022L7.34413 10.0459L7.33653 10.0707C7.21009 10.4721 6.8536 10.7824 6.40394 10.8977C6.3393 10.9144 6.2737 10.9264 6.20525 10.9347L6.17388 10.9387L6.17388 11.2221L6.24518 11.2215L6.24518 11.0018C6.31363 10.9926 6.38017 10.9787 6.44482 10.9611C6.89828 10.8372 7.25763 10.523 7.39642 10.1167L9.7759 10.0955L9.82819 10.0951L8.43834 11.202L8.54576 11.201L10.101 9.989L10.101 6.29181C10.101 5.78212 9.58102 5.37215 8.94218 5.37783ZM10.0297 8.95313L7.154 8.97872C7.05799 8.82743 7.0076 8.65006 7.0076 8.46558L7.0076 8.27539C7.0076 8.22595 7.01236 8.17741 7.01901 8.1298C7.02091 8.11742 7.02376 8.10504 7.02567 8.09266C7.03232 8.05456 7.04183 8.01739 7.05324 7.98115C7.05609 7.97067 7.05894 7.96018 7.06274 7.94969C7.077 7.90962 7.09411 7.87048 7.11408 7.83227L10.0288 7.80632L10.0288 8.95313L10.0297 8.95313ZM10.0297 7.735L7.15686 7.76057C7.17397 7.73284 7.19013 7.70512 7.21009 7.67927C7.3717 7.47053 7.45726 7.22728 7.45726 6.97529L7.45726 6.97433C7.45726 6.92584 7.45251 6.87738 7.44585 6.8299C7.44395 6.81565 7.44205 6.8014 7.4392 6.78716C7.43255 6.74728 7.42304 6.70838 7.41258 6.67044C7.41068 6.66285 7.40973 6.6543 7.40688 6.64671L10.0288 6.62338L10.0288 7.735L10.0297 7.735ZM10.0297 6.5511L7.38121 6.57467C7.38121 6.57372 7.38121 6.57372 7.38026 6.57278L7.3698 6.54815C7.3698 6.5472 7.36885 6.54626 7.36885 6.5453C7.36695 6.54057 7.36505 6.53488 7.3622 6.53015C7.35935 6.52447 7.35744 6.51878 7.35459 6.51215C7.34604 6.49321 7.33558 6.47428 7.32417 6.45251L7.31752 6.43926C7.31371 6.43168 7.30991 6.42411 7.30611 6.41749C7.28805 6.38627 7.26903 6.35601 7.24812 6.32767L7.23481 6.31067C7.2177 6.28705 7.19964 6.26344 7.17967 6.23984L7.16066 6.21814C7.14165 6.19739 7.12263 6.17664 7.10267 6.15685L7.08271 6.13705C7.06559 6.12009 7.04753 6.10504 7.02852 6.08904C7.02662 6.0881 7.02567 6.08621 7.02472 6.08527C7.02186 6.08339 7.01996 6.08056 7.01711 6.07868L6.99905 6.06363C6.98289 6.05046 6.96387 6.03731 6.94676 6.02415C6.94106 6.01945 6.93535 6.0157 6.9287 6.011C6.9249 6.00913 6.92205 6.00631 6.91729 6.0035L6.90874 5.99787C6.90113 5.99318 6.89257 5.9885 6.88497 5.98381C6.8517 5.96224 6.81747 5.94162 6.78135 5.92293C6.76899 5.91638 6.75663 5.90983 6.74427 5.90329C6.69864 5.88087 6.65206 5.85941 6.60358 5.84178C6.59407 5.83806 6.58361 5.8353 6.57316 5.83159C6.53228 5.81674 6.49045 5.8038 6.44767 5.79277C6.43341 5.78909 6.41915 5.78541 6.40489 5.78174C6.3526 5.76984 6.29937 5.75985 6.24518 5.75273L6.24518 5.47316L8.94218 5.44915C9.54204 5.44381 10.0297 5.82174 10.0297 6.29245L10.0297 6.5511Z" fill="white"/>
<path d="M11.3795 6.21117C11.3795 5.76404 11.7419 5.39834 12.189 5.39436L18.7706 5.33577C19.2177 5.33179 19.5802 5.69104 19.5802 6.13817C19.5802 6.58531 19.2177 6.95101 18.7706 6.95499L12.189 7.01357C11.7419 7.01755 11.3795 6.6583 11.3795 6.21117Z" fill="#BE1128"/>
<path d="M2 3.09183C2 2.6447 2.36246 2.279 2.80958 2.27502L18.7237 2.13336C19.1709 2.12938 19.5333 2.48863 19.5333 2.93576C19.5333 3.3829 19.1709 3.7486 18.7237 3.75258L2.80958 3.89424C2.36246 3.89822 2 3.53897 2 3.09183Z" fill="#BE1128"/>
<defs>
<linearGradient id="paint0_linear_6393_15741" x1="0.702083" y1="9.81504" x2="11.9027" y2="6.5648" gradientUnits="userSpaceOnUse">
<stop stop-color="#F7A30A"/>
<stop offset="0.244" stop-color="#FFC20E"/>
<stop offset="0.5006" stop-color="#FFDF80"/>
<stop offset="0.7543" stop-color="#FFECB3"/>
<stop offset="1" stop-color="#FFF9E5"/>
</linearGradient>
<clipPath id="clip0_6393_15741">
<rect width="5.84717" height="8.03986" rx="2.92359" transform="matrix(0.99996 -0.00890106 -1.63293e-08 1 27.8242 2.05176)" fill="white"/>
</clipPath>
<clipPath id="clip1_6393_15741">
<rect width="5.84717" height="8.03986" rx="2.92358" transform="matrix(0.99996 -0.00890106 -1.63293e-08 1 21.2461 2.11035)" fill="white"/>
</clipPath>
</defs>
</svg>
